<?xml version="1.0" encoding="utf-8"?>
<!-- Generator: Adobe Illustrator 19.0.0, SVG Export Plug-In . SVG Version: 6.00 Build 0)  -->
<svg version="1.1" id="layer" xmlns="http://www.w3.org/2000/svg" xmlns:xlink="http://www.w3.org/1999/xlink" x="0px" y="0px"
	 viewBox="-153 -46 652 652" style="enable-background:new -153 -46 652 652;" xml:space="preserve">
<style type="text/css">
	.st0{fill:#231F20;}
	.st1{fill-rule:evenodd;clip-rule:evenodd;fill:#231F20;}
	.st2{fill:#D1232A;}
	.st3{fill:#25408D;}
</style>
<polyline class="st0" points="25.8,241.4 25.8,216 14.8,216 14.8,212.2 41,212.2 41,216 30,216 30,241.4 "/>
<path class="st1" d="M46.5,241.4h4v-12.3c0-4.2,3.3-6.4,7-6.4c4.3,0,6.3,1.8,6.3,4.9v13.8h4v-14.6c0-5.3-3.8-7.6-8.9-7.6
	c-3,0-6.4,1-8.3,4h-0.1V212h-4"/>
<path class="st1" d="M75.8,241.4h4V220h-4V241.4z M75.8,216.5h4V212h-4V216.5z"/>
<path class="st1" d="M87.8,241.4h4v-12.3c0-4.2,3.3-6.4,7-6.4c4.3,0,6.3,1.8,6.3,4.9v13.8h4v-14.6c0-5.3-3.8-7.6-8.9-7.6
	c-3,0-6.4,1-8.3,4h-0.1V220h-4"/>
<polyline class="st1" points="121.4,229.1 121.4,212 117.4,212 117.4,241.4 121.4,241.4 121.4,233.7 125.1,230.7 133.6,241.4 
	139.1,241.4 128.4,228 138.3,220 132.2,220 "/>
<path class="st1" d="M162.4,220H158v3.2h4.4v13.9c0,3.1,1.6,5.1,5.6,5.1c1.7,0,3.2,0,4.5-0.3v-3.4c-0.9,0.2-1.9,0.3-2.8,0.3
	c-2.1,0-3.3-0.6-3.3-2.3v-13.2h6.1V220h-6.1v-6.6h-4"/>
<path class="st1" d="M178.6,241.4h4v-12.3c0-4.2,3.3-6.4,7-6.4c4.3,0,6.3,1.8,6.3,4.9v13.8h4v-14.6c0-5.3-3.8-7.6-8.9-7.6
	c-3,0-6.4,1-8.3,4h-0.1V212h-4"/>
<path class="st1" d="M207.8,241.4h4v-10.9c0-4.7,2.8-7,6.8-7c1.1,0,1.9,0.2,2.9,0.4v-4.4c-0.8-0.2-1.3-0.2-2.3-0.2
	c-2.7,0-5.4,1.3-7.3,4.7h-0.1V220h-4"/>
<path class="st1" d="M250.2,231.9v-0.5c0-8.9-5.9-12.1-11.5-12.1c-8.2,0-12.3,5.3-12.3,11.4c0,6.2,4,11.4,12.3,11.4
	c4.2,0,8.9-2.1,10.9-7.2h-4.3c-1.4,3-4.5,3.8-6.8,3.8c-3.6,0-7.5-2.4-7.8-6.8 M230.8,228.7c0.6-3.8,4-6,7.7-6c3.8,0,6.8,2.2,7.4,6
	H230.8z"/>
<path class="st1" d="M261.1,226.7c0.1-3.3,3.1-4.2,6.5-4.2c3.3,0,6.1,0.6,6.1,3.5c0,1.9-1.4,2.3-3.7,2.6l-4.6,0.5
	c-6.8,0.7-9.1,2.7-9.1,6.7c0,2.8,1.6,6.5,8.6,6.5c3.4,0,7.4-1.3,9-3.5c0.3,2.4,1.6,3,3.6,3c1,0,2.2-0.1,3.2-0.2v-2.9
	c-0.4,0.1-1,0.2-1.4,0.2c-1.2,0-1.8-0.6-1.8-1.8v-11.5c0-5-5.4-6.1-9.8-6.1c-6.3,0-10,2.1-10.5,7.4 M273.8,232.9c0,3.6-3.8,6-8.4,6
	c-3,0-4.9-1.4-4.9-3.4c0-2.2,1.7-3.1,4.8-3.5l4.6-0.6c2.3-0.3,3.4-0.6,4-1.3V232.9z"/>
<path class="st1" d="M305.3,241.4h4V212h-4v11h-0.1c-1.6-2.3-4.9-3.5-8-3.5c-6.4,0-11.5,4.1-11.5,11.3c0,7.2,5.1,11.3,11.5,11.3
	c3.1,0,6.5-1.2,8-3.5h0.1 M289.9,230.8c0-4.9,3.1-7.9,7.8-7.9c4.7,0,7.8,3,7.8,7.9c0,4-2.4,7.9-7.8,7.9
	C292.2,238.7,289.9,234.8,289.9,230.8"/>
<path class="st1" d="M316.1,234.6c0.4,6.2,6,7.5,10.8,7.5c6.5,0,10.6-2.3,10.6-7.3c0-3-2.1-4.9-7.4-5.7l-5.7-0.8
	c-2.9-0.4-3.5-1.2-3.5-2.7c0-2.5,3-3.3,5.6-3.3c4.2,0,6.2,1.8,6.4,4h4c-0.4-4.2-3.4-7.2-10.3-7.2c-5.9,0-9.7,2.6-9.7,6.9
	c0,3.3,2.7,5.3,5.7,5.7l6.7,0.9c3.2,0.4,4,1.3,4,2.9c0,1.5-1.3,3.3-6.5,3.3c-5.1,0-6.7-2.4-6.7-4.3"/>
<polyline class="st1" points="384.3,236.3 384.3,236.3 378.9,220 374.4,220 369.2,236.3 369.1,236.3 363.2,220 358.7,220 
	366.9,241.4 371.2,241.4 376.5,225 376.6,225 381.9,241.4 386.3,241.4 394.7,220 390.4,220 "/>
<path class="st1" d="M400.5,241.4h4V220h-4V241.4z M400.5,216.5h4V212h-4V216.5z"/>
<path class="st1" d="M414.3,220H410v3.2h4.4v13.9c0,3.1,1.6,5.1,5.6,5.1c1.7,0,3.2,0,4.5-0.3v-3.4c-0.9,0.2-1.9,0.3-2.8,0.3
	c-2.1,0-3.3-0.6-3.3-2.3v-13.2h6.1V220h-6.1v-6.6h-4"/>
<path class="st1" d="M430.5,241.4h4v-12.3c0-4.2,3.3-6.4,7-6.4c4.3,0,6.3,1.8,6.3,4.9v13.8h4v-14.6c0-5.3-3.8-7.6-8.9-7.6
	c-3,0-6.4,1-8.3,4h-0.1V212h-4"/>
<path class="st2" d="M-17.3,212.1l-25.8,34.7l-15.5-34.5l0.2-0.4h-16l0.2,0.4l-15.5,34.5l-25.8-34.7h-16v126.9h16l8.5-18.8h32.7
	v18.9h16.2v-18.9h32.5l8.5,18.8h16V212.1 M-66.5,229.7l13.6,30.2l-13.6,18.2l-13.6-18.2L-66.5,229.7z M-115.6,304.3v-68.2l19.3,25.2
	L-115.6,304.3z M-100.1,304.5l13.7-30.4l12,15.6v14.9H-100.1z M-58.3,304.5v-15.1l11.7-15.3l13.7,30.4H-58.3z M-36.7,261.3
	l19.3-25.2v68.2L-36.7,261.3z"/>
<polyline class="st3" points="32.4,260.5 16.6,260.5 41.1,307.7 41.1,339.2 57.4,339.2 57.4,307.7 82.2,260.5 67.4,260.5 
	49.5,294.8 "/>
<path class="st3" d="M120.9,307.6h-18.6l9.5-29.1 M92.7,339.2l6.4-19.6h25.3l6,19.6H146l-24.9-78.7h-18.4l-25.3,78.7H92.7z"/>
<path class="st3" d="M286.6,307.6H268l9.5-29.1 M258.4,339.2l6.4-19.6H290l6,19.6h15.7l-24.9-78.7h-18.4l-25.3,78.7H258.4z"/>
<path class="st3" d="M443.3,307.6h-18.6l9.5-29.1 M415.1,339.2l6.4-19.6h25.3l6,19.6h15.7l-24.9-78.7h-18.4l-25.3,78.7H415.1z"/>
<path class="st3" d="M194.5,311l12.8-50.4H232v78.7h-15.2v-45.3c0-1.5,0-3.7,0.1-6.4c0-2.8,0.1-4.9,0.1-6.4l-14.7,58.1h-15.8
	l-14.6-58.1c0,1.5,0,3.6,0.1,6.4c0,2.8,0.1,4.9,0.1,6.4v45.3h-15.2v-78.7h24.9"/>
<polyline class="st3" points="327,260.2 337.4,307 346.6,260.5 363.8,260.5 373.3,307 384.6,260.4 385.4,260.5 399.9,260.5 
	380.8,339.2 365.3,339.2 364.7,339.1 354.9,293.2 344.7,339.2 329.5,339.2 310.3,260.5 327.6,260.5 "/>
</svg>
